<svg xmlns="http://www.w3.org/2000/svg" xmlns:xlink="http://www.w3.org/1999/xlink" width="232" height="304pt" viewBox="0 0 174.07 303.87"><g id="graph0" class="graph" transform="scale(1 1) rotate(0) translate(4 299.87)"><title>Zå’ŒXçš„å…³ç³»</title><polygon fill="#fff" stroke="none" points="-4 4 -4 -299.87 170.07 -299.87 170.07 4 -4 4"/><g id="node1" class="node"><title>X1</title><ellipse cx="133.13" cy="-262.93" fill="#d3d3d3" stroke="#000" rx="32.93" ry="32.93"/><text x="114.01" y="-258.88" font-family="Times,serif" font-size="14" text-anchor="start">X</text><text x="123.76" y="-258.88" baseline-shift="sub" font-family="Times,serif" font-size="14" text-anchor="start">1</text><text x="129.76" y="-258.88" font-family="Times,serif" font-size="14" text-anchor="start">(ğœƒ</text><text x="141.76" y="-258.88" baseline-shift="sub" font-family="Times,serif" font-size="14" text-anchor="start">1</text><text x="147.76" y="-258.88" font-family="Times,serif" font-size="14" text-anchor="start">)</text></g><g id="node2" class="node"><title>X2</title><ellipse cx="133.13" cy="-178.93" fill="#d3d3d3" stroke="#000" rx="32.93" ry="32.93"/><text x="114.01" y="-174.88" font-family="Times,serif" font-size="14" text-anchor="start">X</text><text x="123.76" y="-174.88" baseline-shift="sub" font-family="Times,serif" font-size="14" text-anchor="start">2</text><text x="129.76" y="-174.88" font-family="Times,serif" font-size="14" text-anchor="start">(ğœƒ</text><text x="141.76" y="-174.88" baseline-shift="sub" font-family="Times,serif" font-size="14" text-anchor="start">2</text><text x="147.76" y="-174.88" font-family="Times,serif" font-size="14" text-anchor="start">)</text></g><g id="node3" class="node"><title>X3</title><ellipse cx="133.13" cy="-105.93" fill="#d3d3d3" stroke="#000" rx="21.6" ry="21.6"/><text x="133.13" y="-100.88" font-family="Times,serif" font-size="14" text-anchor="middle">...</text></g><g id="node4" class="node"><title>XK</title><ellipse cx="133.13" cy="-32.93" fill="#d3d3d3" stroke="#000" rx="32.93" ry="32.93"/><text x="114.01" y="-28.88" font-family="Times,serif" font-size="14" text-anchor="start">X</text><text x="123.76" y="-28.88" baseline-shift="sub" font-family="Times,serif" font-size="14" text-anchor="start">k</text><text x="129.76" y="-28.88" font-family="Times,serif" font-size="14" text-anchor="start">(ğœƒ</text><text x="141.76" y="-28.88" baseline-shift="sub" font-family="Times,serif" font-size="14" text-anchor="start">k</text><text x="147.76" y="-28.88" font-family="Times,serif" font-size="14" text-anchor="start">)</text></g><g id="node5" class="node"><title>Z</title><ellipse cx="21.6" cy="-141.93" fill="none" stroke="#000" rx="21.6" ry="21.6"/><text x="21.6" y="-136.88" font-family="Times,serif" font-size="14" text-anchor="middle">Z</text></g><g id="edge1" class="edge"><title>Z-&gt;X1</title><path fill="none" stroke="#000" d="M36.92,-157.75C53.55,-176.12 81.42,-206.91 102.73,-230.45"/><polygon fill="#000" stroke="#000" points="99.92 -232.56 109.23 -237.63 105.11 -227.87 99.92 -232.56"/><text x="71.7" y="-209.13" font-family="Times,serif" font-size="14" text-anchor="middle">z=1</text></g><g id="edge2" class="edge"><title>Z-&gt;X2</title><path fill="none" stroke="#000" d="M42.44,-148.63C55.99,-153.21 74.44,-159.45 91.09,-165.07"/><polygon fill="#000" stroke="#000" points="89.66 -168.28 100.26 -168.17 91.9 -161.65 89.66 -168.28"/><text x="71.7" y="-164.13" font-family="Times,serif" font-size="14" text-anchor="middle">z=2</text></g><g id="edge3" class="edge"><title>Z-&gt;X3</title><path fill="none" stroke="#000" d="M42.69,-135.33C59.13,-129.93 82.66,-122.19 101.46,-116.01"/><polygon fill="#000" stroke="#000" points="102.33 -119.41 110.73 -112.97 100.14 -112.76 102.33 -119.41"/><text x="71.7" y="-131.13" font-family="Times,serif" font-size="14" text-anchor="middle">...</text></g><g id="edge4" class="edge"><title>Z-&gt;XK</title><path fill="none" stroke="#000" d="M37.12,-126.4C44.29,-118.8 53.12,-109.56 61.2,-101.43 73.85,-88.7 88.03,-74.92 100.37,-63.07"/><polygon fill="#000" stroke="#000" points="102.68 -65.7 107.48 -56.26 97.84 -60.65 102.68 -65.7"/><text x="71.7" y="-104.13" font-family="Times,serif" font-size="14" text-anchor="middle">z=k</text></g></g></svg>