<svg xmlns="http://www.w3.org/2000/svg" xmlns:xlink="http://www.w3.org/1999/xlink" width="928" height="184pt" viewBox="0 0 696 183.93"><g id="graph0" class="graph" transform="scale(1 1) rotate(0) translate(4 179.93)"><title>一个树形概率图模型</title><polygon fill="#fff" stroke="none" points="-4 4 -4 -179.93 692 -179.93 692 4 -4 4"/><g id="clust1" class="cluster"><title>cluster_1</title><polygon fill="none" stroke="none" points="8 -8 8 -167.93 310 -167.93 310 -8 8 -8"/><text x="159" y="-15.2" font-family="Times,serif" font-size="14" text-anchor="middle">(a)</text></g><g id="clust3" class="cluster"><title>cluster_2</title><polygon fill="none" stroke="none" points="318 -8 318 -167.93 620 -167.93 620 -8 318 -8"/><text x="469" y="-15.2" font-family="Times,serif" font-size="14" text-anchor="middle">(b)</text></g><g id="clust6" class="cluster"><title>cluster_3</title><polygon fill="none" stroke="none" points="628 -13.71 628 -167.93 680 -167.93 680 -13.71 628 -13.71"/><text x="654" y="-20.91" font-family="Times,serif" font-size="14" text-anchor="middle">(c)</text></g><g id="node1" class="node"><title>a_x1</title><ellipse cx="38" cy="-64.21" fill="none" stroke="#000" rx="21.67" ry="21.67"/><text x="30.12" y="-60.16" font-family="Times,serif" font-size="14" text-anchor="start">X</text><text x="39.88" y="-60.16" baseline-shift="sub" font-family="Times,serif" font-size="14" text-anchor="start">1</text></g><g id="node2" class="node"><title>a_x2</title><ellipse cx="99" cy="-64.21" fill="none" stroke="#000" rx="21.67" ry="21.67"/><text x="91.12" y="-60.16" font-family="Times,serif" font-size="14" text-anchor="start">X</text><text x="100.88" y="-60.16" baseline-shift="sub" font-family="Times,serif" font-size="14" text-anchor="start">2</text></g><g id="node3" class="node"><title>a_x3</title><ellipse cx="160" cy="-64.21" fill="none" stroke="#000" rx="21.67" ry="21.67"/><text x="152.12" y="-60.16" font-family="Times,serif" font-size="14" text-anchor="start">X</text><text x="161.88" y="-60.16" baseline-shift="sub" font-family="Times,serif" font-size="14" text-anchor="start">3</text></g><g id="node4" class="node"><title>a_xh</title><ellipse cx="218" cy="-64.21" fill="none" stroke="none" rx="18.6" ry="18.6"/><text x="218" y="-59.16" font-family="Times,serif" font-size="14" text-anchor="middle">...</text></g><g id="node5" class="node"><title>a_xn</title><ellipse cx="278" cy="-64.21" fill="none" stroke="#000" rx="23.71" ry="23.71"/><text x="268.62" y="-60.16" font-family="Times,serif" font-size="14" text-anchor="start">X</text><text x="278.38" y="-60.16" baseline-shift="sub" font-family="Times,serif" font-size="14" text-anchor="start">m</text></g><g id="node6" class="node"><title>a_y</title><ellipse cx="160" cy="-141.93" fill="none" stroke="#000" rx="18" ry="18"/><text x="160" y="-136.88" font-family="Times,serif" font-size="14" text-anchor="middle">Y</text></g><g id="edge2" class="edge"><title>a_y-&gt;a_x1</title><path fill="none" stroke="#000" d="M144.34,-132.69C125.74,-122.72 93.97,-105.14 68,-87.93 66.64,-87.03 65.26,-86.08 63.87,-85.12"/><polygon fill="#000" stroke="#000" points="66.24 -82.51 56.09 -79.46 62.12 -88.17 66.24 -82.51"/></g><g id="edge3" class="edge"><title>a_y-&gt;a_x2</title><path fill="none" stroke="#000" d="M149.09,-127.39C140.9,-117.22 129.44,-102.99 119.55,-90.71"/><polygon fill="#000" stroke="#000" points="122.31 -88.57 113.32 -82.98 116.86 -92.96 122.31 -88.57"/></g><g id="edge4" class="edge"><title>a_y-&gt;a_x3</title><path fill="none" stroke="#000" d="M160,-123.75C160,-115.98 160,-106.54 160,-97.53"/><polygon fill="#000" stroke="#000" points="163.5 -97.62 160 -87.62 156.5 -97.62 163.5 -97.62"/></g><g id="edge1" class="edge"><title>a_y-&gt;a_xh</title></g><g id="edge5" class="edge"><title>a_y-&gt;a_xn</title><path fill="none" stroke="#000" d="M175.41,-131.84C192.77,-121.51 221.72,-104 246,-87.93 247.35,-87.03 248.72,-86.11 250.11,-85.17"/><polygon fill="#000" stroke="#000" points="251.72 -88.31 257.95 -79.73 247.73 -82.56 251.72 -88.31"/></g><g id="node7" class="node"><title>b_x1</title><ellipse cx="348" cy="-64.21" fill="none" stroke="#000" rx="21.67" ry="21.67"/><text x="340.12" y="-60.16" font-family="Times,serif" font-size="14" text-anchor="start">X</text><text x="349.88" y="-60.16" baseline-shift="sub" font-family="Times,serif" font-size="14" text-anchor="start">1</text></g><g id="node8" class="node"><title>b_x2</title><ellipse cx="409" cy="-64.21" fill="none" stroke="#000" rx="21.67" ry="21.67"/><text x="401.12" y="-60.16" font-family="Times,serif" font-size="14" text-anchor="start">X</text><text x="410.88" y="-60.16" baseline-shift="sub" font-family="Times,serif" font-size="14" text-anchor="start">2</text></g><g id="edge11" class="edge"><title>b_x1-&gt;b_x2</title><path fill="none" stroke="#000" d="M369.92,-64.21C371.79,-64.21 373.66,-64.21 375.53,-64.21"/><polygon fill="#000" stroke="#000" points="375.51 -67.71 385.51 -64.21 375.5 -60.71 375.51 -67.71"/></g><g id="node9" class="node"><title>b_x3</title><ellipse cx="470" cy="-64.21" fill="none" stroke="#000" rx="21.67" ry="21.67"/><text x="462.12" y="-60.16" font-family="Times,serif" font-size="14" text-anchor="start">X</text><text x="471.88" y="-60.16" baseline-shift="sub" font-family="Times,serif" font-size="14" text-anchor="start">3</text></g><g id="node10" class="node"><title>b_xh</title><ellipse cx="528" cy="-64.21" fill="none" stroke="none" rx="18.6" ry="18.6"/><text x="528" y="-59.16" font-family="Times,serif" font-size="14" text-anchor="middle">...</text></g><g id="node11" class="node"><title>b_xn</title><ellipse cx="588" cy="-64.21" fill="none" stroke="#000" rx="23.71" ry="23.71"/><text x="578.62" y="-60.16" font-family="Times,serif" font-size="14" text-anchor="start">X</text><text x="588.38" y="-60.16" baseline-shift="sub" font-family="Times,serif" font-size="14" text-anchor="start">m</text></g><g id="node12" class="node"><title>b_y</title><ellipse cx="470" cy="-141.93" fill="none" stroke="#000" rx="18" ry="18"/><text x="470" y="-136.88" font-family="Times,serif" font-size="14" text-anchor="middle">Y</text></g><g id="edge7" class="edge"><title>b_y-&gt;b_x1</title><path fill="none" stroke="#000" d="M454.34,-132.69C435.74,-122.72 403.97,-105.14 378,-87.93 376.64,-87.03 375.26,-86.08 373.87,-85.12"/><polygon fill="#000" stroke="#000" points="376.24 -82.51 366.09 -79.46 372.12 -88.17 376.24 -82.51"/></g><g id="edge8" class="edge"><title>b_y-&gt;b_x2</title><path fill="none" stroke="#000" d="M459.09,-127.39C450.9,-117.22 439.44,-102.99 429.55,-90.71"/><polygon fill="#000" stroke="#000" points="432.31 -88.57 423.32 -82.98 426.86 -92.96 432.31 -88.57"/></g><g id="edge9" class="edge"><title>b_y-&gt;b_x3</title><path fill="none" stroke="#000" d="M470,-123.75C470,-115.98 470,-106.54 470,-97.53"/><polygon fill="#000" stroke="#000" points="473.5 -97.62 470 -87.62 466.5 -97.62 473.5 -97.62"/></g><g id="edge6" class="edge"><title>b_y-&gt;b_xh</title></g><g id="edge10" class="edge"><title>b_y-&gt;b_xn</title><path fill="none" stroke="#000" d="M485.41,-131.84C502.77,-121.51 531.72,-104 556,-87.93 557.35,-87.03 558.72,-86.11 560.11,-85.17"/><polygon fill="#000" stroke="#000" points="561.72 -88.31 567.95 -79.73 557.73 -82.56 561.72 -88.31"/></g><g id="node13" class="node"><title>c_x</title><ellipse cx="654" cy="-64.21" fill="none" stroke="#000" rx="18" ry="18"/><text x="654" y="-59.16" font-family="Times,serif" font-size="14" text-anchor="middle">X</text></g><g id="node14" class="node"><title>c_y</title><ellipse cx="654" cy="-141.93" fill="none" stroke="#000" rx="18" ry="18"/><text x="654" y="-136.88" font-family="Times,serif" font-size="14" text-anchor="middle">Y</text></g><g id="edge12" class="edge"><title>c_y-&gt;c_x</title><path fill="none" stroke="#000" d="M654,-123.75C654,-114.9 654,-103.89 654,-93.81"/><polygon fill="#000" stroke="#000" points="657.5 -94.1 654 -84.1 650.5 -94.1 657.5 -94.1"/></g></g></svg>