<svg xmlns="http://www.w3.org/2000/svg" xmlns:xlink="http://www.w3.org/1999/xlink" width="242pt" height="206pt" viewBox="0 0 242 206"><g id="graph0" class="graph" transform="scale(1 1) rotate(0) translate(4 202)"><title>a1_2</title><polygon fill="#fff" stroke="none" points="-4 4 -4 -202 238 -202 238 4 -4 4"/><g id="node1" class="node"><title>a</title><ellipse cx="27" cy="-72" fill="none" stroke="#000" rx="27" ry="18"/><text x="27" y="-66.95" font-family="Times,serif" font-size="14" text-anchor="middle">a</text></g><g id="node2" class="node"><title>b</title><ellipse cx="117" cy="-126" fill="none" stroke="#000" rx="27" ry="18"/><text x="117" y="-120.95" font-family="Times,serif" font-size="14" text-anchor="middle">b</text></g><g id="edge1" class="edge"><title>a-&gt;b</title><path fill="none" stroke="#000" d="M47.53,-83.98C59.15,-91.12 74.11,-100.3 87.08,-108.25"/><polygon fill="#000" stroke="#000" points="84.88 -111.01 95.23 -113.26 88.54 -105.04 84.88 -111.01"/></g><g id="node3" class="node"><title>c</title><ellipse cx="117" cy="-72" fill="none" stroke="#000" rx="27" ry="18"/><text x="117" y="-66.95" font-family="Times,serif" font-size="14" text-anchor="middle">c</text></g><g id="edge2" class="edge"><title>a-&gt;c</title><path fill="none" stroke="#000" d="M54.4,-72C61.89,-72 70.18,-72 78.2,-72"/><polygon fill="#000" stroke="#000" points="78.1 -75.5 88.1 -72 78.1 -68.5 78.1 -75.5"/></g><g id="node4" class="node"><title>d</title><ellipse cx="117" cy="-18" fill="none" stroke="#000" rx="27" ry="18"/><text x="117" y="-12.95" font-family="Times,serif" font-size="14" text-anchor="middle">d</text></g><g id="edge3" class="edge"><title>a-&gt;d</title><path fill="none" stroke="#000" d="M47.53,-60.02C59.15,-52.88 74.11,-43.7 87.08,-35.75"/><polygon fill="#000" stroke="#000" points="88.54 -38.96 95.23 -30.74 84.88 -32.99 88.54 -38.96"/></g><g id="node5" class="node"><title>e</title><ellipse cx="207" cy="-180" fill="none" stroke="#000" rx="27" ry="18"/><text x="207" y="-174.95" font-family="Times,serif" font-size="14" text-anchor="middle">e</text></g><g id="edge4" class="edge"><title>b-&gt;e</title><path fill="none" stroke="#000" d="M137.53,-137.98C149.15,-145.12 164.11,-154.3 177.08,-162.25"/><polygon fill="#000" stroke="#000" points="174.88 -165.01 185.23 -167.26 178.54 -159.04 174.88 -165.01"/></g><g id="node6" class="node"><title>f</title><ellipse cx="207" cy="-126" fill="none" stroke="#000" rx="27" ry="18"/><text x="207" y="-120.95" font-family="Times,serif" font-size="14" text-anchor="middle">f</text></g><g id="edge5" class="edge"><title>b-&gt;f</title><path fill="none" stroke="#000" d="M144.4,-126C151.89,-126 160.18,-126 168.2,-126"/><polygon fill="#000" stroke="#000" points="168.1 -129.5 178.1 -126 168.1 -122.5 168.1 -129.5"/></g><g id="node7" class="node"><title>g</title><ellipse cx="207" cy="-72" fill="none" stroke="#000" rx="27" ry="18"/><text x="207" y="-66.95" font-family="Times,serif" font-size="14" text-anchor="middle">g</text></g><g id="edge6" class="edge"><title>b-&gt;g</title><path fill="none" stroke="#000" d="M137.53,-114.02C149.15,-106.88 164.11,-97.7 177.08,-89.75"/><polygon fill="#000" stroke="#000" points="178.54 -92.96 185.23 -84.74 174.88 -86.99 178.54 -92.96"/></g></g></svg>