<svg xmlns="http://www.w3.org/2000/svg" xmlns:xlink="http://www.w3.org/1999/xlink" width="289pt" height="151pt" viewBox="0 0 289.33 151.33"><g id="graph0" class="graph" transform="scale(1 1) rotate(0) translate(4 147.33)"><title>fg_elimination_010</title><polygon fill="#fff" stroke="none" points="-4 4 -4 -147.33 285.33 -147.33 285.33 4 -4 4"/><g id="node1" class="node"><title>X1</title><ellipse cx="21.67" cy="-51.67" fill="none" stroke="#000" rx="21.67" ry="21.67"/><text x="13.79" y="-47.62" font-family="Times,serif" font-size="14" text-anchor="start">X</text><text x="23.54" y="-47.62" baseline-shift="sub" font-family="Times,serif" font-size="14" text-anchor="start">1</text></g><g id="node2" class="node"><title>X2</title><ellipse cx="101" cy="-82.67" fill="#696969" stroke="#000" rx="21.67" ry="21.67"/><text x="93.12" y="-78.62" font-family="Times,serif" font-size="14" text-anchor="start">X</text><text x="102.87" y="-78.62" baseline-shift="sub" font-family="Times,serif" font-size="14" text-anchor="start">2</text></g><g id="edge1" class="edge"><title>X1-&gt;X2</title><path fill="none" stroke="#000" d="M42.18,-59.49C50.61,-62.87 60.66,-66.9 69.99,-70.64"/><polygon fill="#000" stroke="#000" points="68.5 -73.81 79.09 -74.28 71.11 -67.31 68.5 -73.81"/></g><g id="node3" class="node"><title>X3</title><ellipse cx="101" cy="-21.67" fill="#696969" stroke="#000" rx="21.67" ry="21.67"/><text x="93.12" y="-17.62" font-family="Times,serif" font-size="14" text-anchor="start">X</text><text x="102.87" y="-17.62" baseline-shift="sub" font-family="Times,serif" font-size="14" text-anchor="start">3</text></g><g id="edge2" class="edge"><title>X1-&gt;X3</title><path fill="none" stroke="#000" d="M42.18,-44.1C50.54,-40.85 60.5,-36.99 69.78,-33.39"/><polygon fill="#000" stroke="#000" points="70.75 -36.77 78.81 -29.89 68.22 -30.24 70.75 -36.77"/></g><g id="node4" class="node"><title>X4</title><ellipse cx="180.33" cy="-121.67" fill="#696969" stroke="#000" rx="21.67" ry="21.67"/><text x="172.46" y="-117.62" font-family="Times,serif" font-size="14" text-anchor="start">X</text><text x="182.21" y="-117.62" baseline-shift="sub" font-family="Times,serif" font-size="14" text-anchor="start">4</text></g><g id="edge3" class="edge"><title>X2-&gt;X4</title><path fill="none" stroke="#000" d="M120.72,-92.11C129.58,-96.58 140.37,-102.02 150.27,-107.01"/><polygon fill="#000" stroke="#000" points="148.66 -110.12 159.17 -111.5 151.81 -103.87 148.66 -110.12"/></g><g id="node6" class="node"><title>X6</title><ellipse cx="259.67" cy="-46.67" fill="#d3d3d3" stroke="#000" rx="21.67" ry="21.67"/><text x="251.79" y="-42.62" font-family="Times,serif" font-size="14" text-anchor="start">X</text><text x="261.54" y="-42.62" baseline-shift="sub" font-family="Times,serif" font-size="14" text-anchor="start">6</text></g><g id="edge4" class="edge"><title>X2-&gt;X6</title><path fill="none" stroke="#000" d="M122.48,-77.96C149.1,-71.84 195.87,-61.1 227.06,-53.93"/><polygon fill="#000" stroke="#000" points="227.74 -57.36 236.7 -51.71 226.17 -50.54 227.74 -57.36"/></g><g id="node5" class="node"><title>X5</title><ellipse cx="180.33" cy="-21.67" fill="#696969" stroke="#000" rx="21.67" ry="21.67"/><text x="172.46" y="-17.62" font-family="Times,serif" font-size="14" text-anchor="start">X</text><text x="182.21" y="-17.62" baseline-shift="sub" font-family="Times,serif" font-size="14" text-anchor="start">5</text></g><g id="edge5" class="edge"><title>X3-&gt;X5</title><path fill="none" stroke="#000" d="M123.13,-21.67C130.46,-21.67 138.86,-21.67 146.89,-21.67"/><polygon fill="#000" stroke="#000" points="146.71 -25.17 156.71 -21.67 146.71 -18.17 146.71 -25.17"/></g><g id="edge6" class="edge"><title>X5-&gt;X6</title><path fill="none" stroke="#000" d="M201.25,-28.1C209.3,-30.71 218.79,-33.78 227.71,-36.66"/><polygon fill="#000" stroke="#000" points="226.52 -39.95 237.11 -39.7 228.67 -33.29 226.52 -39.95"/></g></g></svg>