<svg xmlns="http://www.w3.org/2000/svg" xmlns:xlink="http://www.w3.org/1999/xlink" width="278pt" height="188pt" viewBox="0 0 278 188"><g id="graph0" class="graph" transform="scale(1 1) rotate(0) translate(4 184)"><title>a1_1</title><polygon fill="#fff" stroke="none" points="-4 4 -4 -184 274 -184 274 4 -4 4"/><g id="node1" class="node"><title>a</title><ellipse cx="171" cy="-162" fill="none" stroke="#000" rx="27" ry="18"/><text x="171" y="-156.95" font-family="Times,serif" font-size="14" text-anchor="middle">a</text></g><g id="node2" class="node"><title>b</title><ellipse cx="99" cy="-90" fill="none" stroke="#000" rx="27" ry="18"/><text x="99" y="-84.95" font-family="Times,serif" font-size="14" text-anchor="middle">b</text></g><g id="edge1" class="edge"><title>a-&gt;b</title><path fill="none" stroke="#000" d="M156.08,-146.5C146.23,-136.92 133.14,-124.19 121.97,-113.34"/><polygon fill="#000" stroke="#000" points="124.59 -111 114.98 -106.54 119.71 -116.02 124.59 -111"/></g><g id="node3" class="node"><title>c</title><ellipse cx="171" cy="-90" fill="none" stroke="#000" rx="27" ry="18"/><text x="171" y="-84.95" font-family="Times,serif" font-size="14" text-anchor="middle">c</text></g><g id="edge2" class="edge"><title>a-&gt;c</title><path fill="none" stroke="#000" d="M171,-143.7C171,-136.41 171,-127.73 171,-119.54"/><polygon fill="#000" stroke="#000" points="174.5 -119.62 171 -109.62 167.5 -119.62 174.5 -119.62"/></g><g id="node4" class="node"><title>d</title><ellipse cx="243" cy="-90" fill="none" stroke="#000" rx="27" ry="18"/><text x="243" y="-84.95" font-family="Times,serif" font-size="14" text-anchor="middle">d</text></g><g id="edge3" class="edge"><title>a-&gt;d</title><path fill="none" stroke="#000" d="M185.92,-146.5C195.77,-136.92 208.86,-124.19 220.03,-113.34"/><polygon fill="#000" stroke="#000" points="222.29 -116.02 227.02 -106.54 217.41 -111 222.29 -116.02"/></g><g id="node5" class="node"><title>e</title><ellipse cx="27" cy="-18" fill="none" stroke="#000" rx="27" ry="18"/><text x="27" y="-12.95" font-family="Times,serif" font-size="14" text-anchor="middle">e</text></g><g id="edge4" class="edge"><title>b-&gt;e</title><path fill="none" stroke="#000" d="M84.08,-74.5C74.23,-64.92 61.14,-52.19 49.97,-41.34"/><polygon fill="#000" stroke="#000" points="52.59 -39 42.98 -34.54 47.71 -44.02 52.59 -39"/></g><g id="node6" class="node"><title>f</title><ellipse cx="99" cy="-18" fill="none" stroke="#000" rx="27" ry="18"/><text x="99" y="-12.95" font-family="Times,serif" font-size="14" text-anchor="middle">f</text></g><g id="edge5" class="edge"><title>b-&gt;f</title><path fill="none" stroke="#000" d="M99,-71.7C99,-64.41 99,-55.73 99,-47.54"/><polygon fill="#000" stroke="#000" points="102.5 -47.62 99 -37.62 95.5 -47.62 102.5 -47.62"/></g><g id="node7" class="node"><title>g</title><ellipse cx="171" cy="-18" fill="none" stroke="#000" rx="27" ry="18"/><text x="171" y="-12.95" font-family="Times,serif" font-size="14" text-anchor="middle">g</text></g><g id="edge6" class="edge"><title>b-&gt;g</title><path fill="none" stroke="#000" d="M113.92,-74.5C123.77,-64.92 136.86,-52.19 148.03,-41.34"/><polygon fill="#000" stroke="#000" points="150.29 -44.02 155.02 -34.54 145.41 -39 150.29 -44.02"/></g></g></svg>