<svg xmlns="http://www.w3.org/2000/svg" xmlns:xlink="http://www.w3.org/1999/xlink" width="380" height="205pt" viewBox="0 0 284.67 205.49"><g id="graph0" class="graph" transform="scale(1 1) rotate(0) translate(4 201.49)"><title>a1_3</title><polygon fill="#fff" stroke="none" points="-4 4 -4 -201.49 280.67 -201.49 280.67 4 -4 4"/><g id="node1" class="node"><title>a</title><ellipse cx="89.29" cy="-85.23" fill="none" stroke="#000" rx="27" ry="18"/><text x="89.29" y="-80.18" font-family="Times,serif" font-size="14" text-anchor="middle">a</text></g><g id="node2" class="node"><title>b</title><ellipse cx="171.01" cy="-98.42" fill="none" stroke="#000" rx="27" ry="18"/><text x="171.01" y="-93.37" font-family="Times,serif" font-size="14" text-anchor="middle">b</text></g><g id="edge1" class="edge"><title>a-&gt;b</title><path fill="none" stroke="#000" d="M115.6,-89.47C121.23,-90.38 127.28,-91.36 133.25,-92.32"/><polygon fill="#000" stroke="#000" points="132.55 -95.76 142.98 -93.89 133.67 -88.84 132.55 -95.76"/></g><g id="node3" class="node"><title>c</title><ellipse cx="46.68" cy="-18" fill="none" stroke="#000" rx="27" ry="18"/><text x="46.68" y="-12.95" font-family="Times,serif" font-size="14" text-anchor="middle">c</text></g><g id="edge2" class="edge"><title>a-&gt;c</title><path fill="none" stroke="#000" d="M78.54,-68.26C73.97,-61.04 68.52,-52.45 63.44,-44.43"/><polygon fill="#000" stroke="#000" points="66.4 -42.58 58.09 -36 60.49 -46.32 66.4 -42.58"/></g><g id="node4" class="node"><title>d</title><ellipse cx="27" cy="-134.49" fill="none" stroke="#000" rx="27" ry="18"/><text x="27" y="-129.44" font-family="Times,serif" font-size="14" text-anchor="middle">d</text></g><g id="edge3" class="edge"><title>a-&gt;d</title><path fill="none" stroke="#000" d="M71.61,-99.21C65.91,-103.72 59.46,-108.82 53.27,-113.72"/><polygon fill="#000" stroke="#000" points="51.37 -110.75 45.7 -119.7 55.72 -116.25 51.37 -110.75"/></g><g id="node5" class="node"><title>e</title><ellipse cx="249.67" cy="-110.22" fill="none" stroke="#000" rx="27" ry="18"/><text x="249.67" y="-105.17" font-family="Times,serif" font-size="14" text-anchor="middle">e</text></g><g id="edge4" class="edge"><title>b-&gt;e</title><path fill="none" stroke="#000" d="M197.64,-102.41C202.26,-103.11 207.13,-103.84 211.97,-104.56"/><polygon fill="#000" stroke="#000" points="211.16 -107.98 221.57 -106 212.2 -101.06 211.16 -107.98"/></g><g id="node6" class="node"><title>f</title><ellipse cx="180.38" cy="-179.49" fill="none" stroke="#000" rx="27" ry="18"/><text x="180.38" y="-174.44" font-family="Times,serif" font-size="14" text-anchor="middle">f</text></g><g id="edge5" class="edge"><title>b-&gt;f</title><path fill="none" stroke="#000" d="M173.14,-116.81C174.26,-126.56 175.67,-138.76 176.95,-149.81"/><polygon fill="#000" stroke="#000" points="173.46 -150.13 178.09 -159.66 180.42 -149.33 173.46 -150.13"/></g><g id="node7" class="node"><title>g</title><ellipse cx="204.61" cy="-24.01" fill="none" stroke="#000" rx="27" ry="18"/><text x="204.61" y="-18.96" font-family="Times,serif" font-size="14" text-anchor="middle">g</text></g><g id="edge6" class="edge"><title>b-&gt;g</title><path fill="none" stroke="#000" d="M178.97,-80.78C182.87,-72.17 187.64,-61.59 192.01,-51.91"/><polygon fill="#000" stroke="#000" points="195.16 -53.45 196.08 -42.9 188.78 -50.57 195.16 -53.45"/></g></g></svg>