<svg xmlns="http://www.w3.org/2000/svg" xmlns:xlink="http://www.w3.org/1999/xlink" width="628pt" height="352" viewBox="0 0 628 263.67"><g id="graph0" class="graph" transform="scale(1 1) rotate(0) translate(4 259.67)"><title>生成模型与判别模型</title><polygon fill="#fff" stroke="none" points="-4 4 -4 -259.67 624 -259.67 624 4 -4 4"/><g id="clust1" class="cluster"><title>cluster_1</title><polygon fill="none" stroke="none" points="8 -91.83 8 -247.67 306 -247.67 306 -91.83 8 -91.83"/><text x="157" y="-99.03" font-family="Times,serif" font-size="14" text-anchor="middle">(a)</text></g><g id="clust3" class="cluster"><title>cluster_2</title><polygon fill="none" stroke="none" points="314 -8 314 -247.67 612 -247.67 612 -8 314 -8"/><text x="463" y="-15.2" font-family="Times,serif" font-size="14" text-anchor="middle">(b)</text></g><g id="node1" class="node"><title>a_x1</title><ellipse cx="38" cy="-146" fill="none" stroke="#000" rx="21.67" ry="21.67"/><text x="30.12" y="-141.95" font-family="Times,serif" font-size="14" text-anchor="start">X</text><text x="39.88" y="-141.95" baseline-shift="sub" font-family="Times,serif" font-size="14" text-anchor="start">1</text></g><g id="node2" class="node"><title>a_x2</title><ellipse cx="99" cy="-146" fill="none" stroke="#000" rx="21.67" ry="21.67"/><text x="91.12" y="-141.95" font-family="Times,serif" font-size="14" text-anchor="start">X</text><text x="100.88" y="-141.95" baseline-shift="sub" font-family="Times,serif" font-size="14" text-anchor="start">2</text></g><g id="node3" class="node"><title>a_x3</title><ellipse cx="160" cy="-146" fill="none" stroke="#000" rx="21.67" ry="21.67"/><text x="152.12" y="-141.95" font-family="Times,serif" font-size="14" text-anchor="start">X</text><text x="161.88" y="-141.95" baseline-shift="sub" font-family="Times,serif" font-size="14" text-anchor="start">3</text></g><g id="node4" class="node"><title>a_xh</title><ellipse cx="218" cy="-146" fill="none" stroke="none" rx="18.6" ry="18.6"/><text x="218" y="-140.95" font-family="Times,serif" font-size="14" text-anchor="middle">...</text></g><g id="node5" class="node"><title>a_xn</title><ellipse cx="276" cy="-146" fill="none" stroke="#000" rx="21.67" ry="21.67"/><text x="268.12" y="-141.95" font-family="Times,serif" font-size="14" text-anchor="start">X</text><text x="277.88" y="-141.95" baseline-shift="sub" font-family="Times,serif" font-size="14" text-anchor="start">n</text></g><g id="node6" class="node"><title>a_y</title><ellipse cx="160" cy="-221.67" fill="none" stroke="#000" rx="18" ry="18"/><text x="160" y="-216.62" font-family="Times,serif" font-size="14" text-anchor="middle">Y</text></g><g id="edge2" class="edge"><title>a_y-&gt;a_x1</title><path fill="none" stroke="#000" d="M144.47,-212.22C126,-202.06 94.34,-184.29 68,-167.67 66.96,-167.01 65.9,-166.33 64.83,-165.64"/><polygon fill="#000" stroke="#000" points="66.81 -162.75 56.55 -160.1 62.92 -168.57 66.81 -162.75"/></g><g id="edge3" class="edge"><title>a_y-&gt;a_x2</title><path fill="none" stroke="#000" d="M148.81,-207.15C140.64,-197.29 129.34,-183.64 119.56,-171.83"/><polygon fill="#000" stroke="#000" points="122.5 -169.89 113.43 -164.42 117.11 -174.35 122.5 -169.89"/></g><g id="edge4" class="edge"><title>a_y-&gt;a_x3</title><path fill="none" stroke="#000" d="M160,-203.21C160,-196.04 160,-187.49 160,-179.26"/><polygon fill="#000" stroke="#000" points="163.5 -179.52 160 -169.52 156.5 -179.52 163.5 -179.52"/></g><g id="edge1" class="edge"><title>a_y-&gt;a_xh</title></g><g id="edge5" class="edge"><title>a_y-&gt;a_xn</title><path fill="none" stroke="#000" d="M175.37,-211.52C192.69,-201.13 221.61,-183.57 246,-167.67 247.03,-166.99 248.08,-166.3 249.14,-165.6"/><polygon fill="#000" stroke="#000" points="251.07 -168.52 257.4 -160.02 247.15 -162.72 251.07 -168.52"/></g><g id="node7" class="node"><title>b_x1</title><ellipse cx="344" cy="-62.17" fill="none" stroke="#000" rx="21.67" ry="21.67"/><text x="336.12" y="-58.12" font-family="Times,serif" font-size="14" text-anchor="start">X</text><text x="345.88" y="-58.12" baseline-shift="sub" font-family="Times,serif" font-size="14" text-anchor="start">1</text></g><g id="node8" class="node"><title>b_x2</title><ellipse cx="405" cy="-62.17" fill="none" stroke="#000" rx="21.67" ry="21.67"/><text x="397.12" y="-58.12" font-family="Times,serif" font-size="14" text-anchor="start">X</text><text x="406.88" y="-58.12" baseline-shift="sub" font-family="Times,serif" font-size="14" text-anchor="start">2</text></g><g id="node9" class="node"><title>b_x3</title><ellipse cx="466" cy="-62.17" fill="none" stroke="#000" rx="21.67" ry="21.67"/><text x="458.12" y="-58.12" font-family="Times,serif" font-size="14" text-anchor="start">X</text><text x="467.88" y="-58.12" baseline-shift="sub" font-family="Times,serif" font-size="14" text-anchor="start">3</text></g><g id="node10" class="node"><title>b_xh</title><ellipse cx="524" cy="-62.17" fill="none" stroke="none" rx="18.6" ry="18.6"/><text x="524" y="-57.12" font-family="Times,serif" font-size="14" text-anchor="middle">...</text></g><g id="node11" class="node"><title>b_xn</title><ellipse cx="582" cy="-62.17" fill="none" stroke="#000" rx="21.67" ry="21.67"/><text x="574.12" y="-58.12" font-family="Times,serif" font-size="14" text-anchor="start">X</text><text x="583.88" y="-58.12" baseline-shift="sub" font-family="Times,serif" font-size="14" text-anchor="start">n</text></g><g id="node12" class="node"><title>b_y</title><ellipse cx="466" cy="-221.67" fill="none" stroke="#000" rx="18" ry="18"/><text x="466" y="-216.62" font-family="Times,serif" font-size="14" text-anchor="middle">Y</text></g><g id="node13" class="node"><title>b_s1</title><polygon fill="none" stroke="#000" points="374.6 -149.6 367.4 -149.6 367.4 -142.4 374.6 -142.4 374.6 -149.6"/></g><g id="edge7" class="edge"><title>b_y-&gt;b_s1</title><path fill="none" stroke="#000" d="M451.98,-209.8C429.69,-192.51 387.36,-159.69 374.68,-149.85"/></g><g id="node14" class="node"><title>b_s2</title><polygon fill="none" stroke="#000" points="426.6 -149.6 419.4 -149.6 419.4 -142.4 426.6 -142.4 426.6 -149.6"/></g><g id="edge8" class="edge"><title>b_y-&gt;b_s2</title><path fill="none" stroke="#000" d="M457.3,-205.76C446.89,-187.93 430.2,-159.33 424.77,-150.03"/></g><g id="node15" class="node"><title>b_s3</title><polygon fill="none" stroke="#000" points="469.6 -149.6 462.4 -149.6 462.4 -142.4 469.6 -142.4 469.6 -149.6"/></g><g id="edge9" class="edge"><title>b_y-&gt;b_s3</title><path fill="none" stroke="#000" d="M466,-203.21C466,-185.17 466,-158.46 466,-149.81"/></g><g id="node16" class="node"><title>b_sh</title><polygon fill="none" stroke="none" points="510.6 -149.6 503.4 -149.6 503.4 -142.4 510.6 -142.4 510.6 -149.6"/></g><g id="edge6" class="edge"><title>b_y-&gt;b_sh</title></g><g id="node17" class="node"><title>b_sn</title><polygon fill="none" stroke="#000" points="560.6 -149.6 553.4 -149.6 553.4 -142.4 560.6 -142.4 560.6 -149.6"/></g><g id="edge10" class="edge"><title>b_y-&gt;b_sn</title><path fill="none" stroke="#000" d="M479.82,-209.48C501.3,-192.09 541.48,-159.56 553.51,-149.83"/></g><g id="edge11" class="edge"><title>b_s1-&gt;b_x1</title><path fill="none" stroke="#000" d="M370.1,-142.28C367.1,-133.18 357.23,-103.27 350.53,-82.95"/></g><g id="edge12" class="edge"><title>b_s2-&gt;b_x2</title><path fill="none" stroke="#000" d="M422.4,-142.28C420.42,-133.29 413.98,-104 409.52,-83.7"/></g><g id="edge13" class="edge"><title>b_s3-&gt;b_x3</title><path fill="none" stroke="#000" d="M466,-142.28C466,-133.35 466,-104.36 466,-84.07"/></g><g id="edge15" class="edge"><title>b_sh-&gt;b_xh</title></g><g id="edge14" class="edge"><title>b_sn-&gt;b_xn</title><path fill="none" stroke="#000" d="M557.83,-142.28C560.59,-133.24 569.64,-103.64 575.84,-83.32"/></g></g></svg>