<svg xmlns="http://www.w3.org/2000/svg" xmlns:xlink="http://www.w3.org/1999/xlink" width="293pt" height="127pt" viewBox="0 0 293.38 127.43"><g id="graph0" class="graph" transform="scale(1 1) rotate(0) translate(4 123.43)"><title>一个树形概率图模型</title><polygon fill="#fff" stroke="none" points="-4 4 -4 -123.43 289.38 -123.43 289.38 4 -4 4"/><g id="node1" class="node"><title>x1</title><ellipse cx="21.67" cy="-23.71" fill="none" stroke="#000" rx="21.67" ry="21.67"/><text x="13.79" y="-19.66" font-family="Times,serif" font-size="14" text-anchor="start">X</text><text x="23.54" y="-19.66" baseline-shift="sub" font-family="Times,serif" font-size="14" text-anchor="start">1</text></g><g id="node2" class="node"><title>x2</title><ellipse cx="82.67" cy="-23.71" fill="none" stroke="#000" rx="21.67" ry="21.67"/><text x="74.79" y="-19.66" font-family="Times,serif" font-size="14" text-anchor="start">X</text><text x="84.54" y="-19.66" baseline-shift="sub" font-family="Times,serif" font-size="14" text-anchor="start">2</text></g><g id="node3" class="node"><title>x3</title><ellipse cx="143.67" cy="-23.71" fill="none" stroke="#000" rx="21.67" ry="21.67"/><text x="135.79" y="-19.66" font-family="Times,serif" font-size="14" text-anchor="start">X</text><text x="145.54" y="-19.66" baseline-shift="sub" font-family="Times,serif" font-size="14" text-anchor="start">3</text></g><g id="node4" class="node"><title>xh</title><ellipse cx="201.67" cy="-23.71" fill="none" stroke="none" rx="18.6" ry="18.6"/><text x="201.67" y="-18.66" font-family="Times,serif" font-size="14" text-anchor="middle">...</text></g><g id="node5" class="node"><title>xm</title><ellipse cx="261.67" cy="-23.71" fill="none" stroke="#000" rx="23.71" ry="23.71"/><text x="252.29" y="-19.66" font-family="Times,serif" font-size="14" text-anchor="start">X</text><text x="262.04" y="-19.66" baseline-shift="sub" font-family="Times,serif" font-size="14" text-anchor="start">m</text></g><g id="node6" class="node"><title>y</title><ellipse cx="143.67" cy="-101.43" fill="none" stroke="#000" rx="18" ry="18"/><text x="143.67" y="-96.38" font-family="Times,serif" font-size="14" text-anchor="middle">Y</text></g><g id="edge2" class="edge"><title>y-&gt;x1</title><path fill="none" stroke="#000" d="M128.01,-92.19C109.41,-82.22 77.63,-64.64 51.67,-47.43 50.31,-46.53 48.92,-45.58 47.54,-44.62"/><polygon fill="#000" stroke="#000" points="49.9 -42.01 39.76 -38.96 45.78 -47.67 49.9 -42.01"/></g><g id="edge3" class="edge"><title>y-&gt;x2</title><path fill="none" stroke="#000" d="M132.76,-86.89C124.57,-76.72 113.11,-62.49 103.21,-50.21"/><polygon fill="#000" stroke="#000" points="105.98 -48.07 96.98 -42.48 100.53 -52.46 105.98 -48.07"/></g><g id="edge4" class="edge"><title>y-&gt;x3</title><path fill="none" stroke="#000" d="M143.67,-83.25C143.67,-75.48 143.67,-66.04 143.67,-57.03"/><polygon fill="#000" stroke="#000" points="147.17 -57.12 143.67 -47.12 140.17 -57.12 147.17 -57.12"/></g><g id="edge1" class="edge"><title>y-&gt;xh</title></g><g id="edge5" class="edge"><title>y-&gt;xm</title><path fill="none" stroke="#000" d="M159.08,-91.34C176.44,-81.01 205.39,-63.5 229.67,-47.43 231.02,-46.53 232.39,-45.61 233.77,-44.67"/><polygon fill="#000" stroke="#000" points="235.39 -47.81 241.61 -39.23 231.4 -42.06 235.39 -47.81"/></g></g></svg>