<svg xmlns="http://www.w3.org/2000/svg" xmlns:xlink="http://www.w3.org/1999/xlink" width="206pt" height="116pt" viewBox="0 0 206 116"><g id="graph0" class="graph" transform="scale(1 1) rotate(0) translate(4 112)"><title>demo_10</title><polygon fill="#fff" stroke="none" points="-4 4 -4 -112 202 -112 202 4 -4 4"/><g id="node1" class="node"><title>a</title><ellipse cx="171" cy="-90" fill="none" stroke="#000" rx="27" ry="18"/><text x="171" y="-84.95" font-family="Times,serif" font-size="14" text-anchor="middle">a</text></g><g id="node2" class="node"><title>b</title><ellipse cx="27" cy="-18" fill="none" stroke="#000" rx="27" ry="18"/><text x="27" y="-12.95" font-family="Times,serif" font-size="14" text-anchor="middle">b</text></g><g id="edge1" class="edge"><title>a-&gt;b</title><path fill="none" stroke="#000" d="M149.44,-78.52C125.34,-66.8 86.08,-47.72 58.53,-34.32"/><polygon fill="#000" stroke="#000" points="60.12 -31.21 49.6 -29.98 57.06 -37.5 60.12 -31.21"/></g><g id="node3" class="node"><title>c</title><ellipse cx="99" cy="-18" fill="none" stroke="#000" rx="27" ry="18"/><text x="99" y="-12.95" font-family="Times,serif" font-size="14" text-anchor="middle">c</text></g><g id="edge2" class="edge"><title>a-&gt;c</title><path fill="none" stroke="#000" d="M156.08,-74.5C146.23,-64.92 133.14,-52.19 121.97,-41.34"/><polygon fill="#000" stroke="#000" points="124.59 -39 114.98 -34.54 119.71 -44.02 124.59 -39"/></g><g id="node4" class="node"><title>d</title><ellipse cx="171" cy="-18" fill="none" stroke="#000" rx="27" ry="18"/><text x="171" y="-12.95" font-family="Times,serif" font-size="14" text-anchor="middle">d</text></g><g id="edge3" class="edge"><title>a-&gt;d</title><path fill="none" stroke="#000" d="M171,-71.7C171,-64.41 171,-55.73 171,-47.54"/><polygon fill="#000" stroke="#000" points="174.5 -47.62 171 -37.62 167.5 -47.62 174.5 -47.62"/></g></g></svg>