<svg xmlns="http://www.w3.org/2000/svg" xmlns:xlink="http://www.w3.org/1999/xlink" width="272" height="248" viewBox="0 0 204 186"><g id="graph0" class="graph" transform="scale(1 1) rotate(0) translate(4 182)"><title>æ··åˆæ¨¡å‹çš„æœ‰å‘å›¾è¡¨ç¤º</title><polygon fill="#fff" stroke="none" points="-4 4 -4 -182 200 -182 200 4 -4 4"/><g id="clust1" class="cluster"><title>cluster_a</title><polygon fill="none" stroke="#000" points="64 -93 64 -170 188 -170 188 -93 64 -93"/><text x="126" y="-152.7" font-family="Times,serif" font-size="14" text-anchor="middle">N</text></g><g id="clust3" class="cluster"><title>cluster_b</title><polygon fill="none" stroke="#000" points="64 -8 64 -85 116 -85 116 -8 64 -8"/><text x="90" y="-67.7" font-family="Times,serif" font-size="14" text-anchor="middle">K</text></g><g id="node1" class="node"><title>lambda</title><text x="18" y="-113.2" font-family="Times,serif" font-size="14" text-anchor="middle">ğœ†</text></g><g id="node2" class="node"><title>Z</title><ellipse cx="90" cy="-119" fill="none" stroke="#000" rx="18" ry="18"/><text x="84.38" y="-114.95" font-family="Times,serif" font-size="14" text-anchor="start">Z</text><text x="92.62" y="-114.95" baseline-shift="super" font-family="Times,serif" font-size="14" text-anchor="start">i</text></g><g id="edge2" class="edge"><title>lambda-&gt;Z</title><path fill="none" stroke="#000" d="M35.95,-119C43.32,-119 52.16,-119 60.49,-119"/><polygon fill="#000" stroke="#000" points="60.21 -122.5 70.21 -119 60.21 -115.5 60.21 -122.5"/></g><g id="node3" class="node"><title>X</title><ellipse cx="162" cy="-119" fill="#d3d3d3" stroke="#000" rx="18" ry="18"/><text x="155.62" y="-114.95" font-family="Times,serif" font-size="14" text-anchor="start">X</text><text x="165.38" y="-114.95" baseline-shift="super" font-family="Times,serif" font-size="14" text-anchor="start">i</text></g><g id="edge1" class="edge"><title>Z-&gt;X</title><path fill="none" stroke="#000" d="M108.3,-119C115.59,-119 124.27,-119 132.46,-119"/><polygon fill="#000" stroke="#000" points="132.38 -122.5 142.38 -119 132.38 -115.5 132.38 -122.5"/></g><g id="node4" class="node"><title>theta</title><text x="83.25" y="-29.2" font-family="Times,serif" font-size="14" text-anchor="start">ğœƒ</text><text x="90.75" y="-29.2" baseline-shift="sub" font-family="Times,serif" font-size="14" text-anchor="start">k</text></g><g id="edge3" class="edge"><title>theta-&gt;X</title><path fill="none" stroke="#000" d="M105.5,-51.61C116.28,-64.7 131.06,-82.64 142.65,-96.72"/><polygon fill="#000" stroke="#000" points="139.72 -98.66 148.78 -104.16 145.12 -94.21 139.72 -98.66"/></g></g></svg>