<svg xmlns="http://www.w3.org/2000/svg" xmlns:xlink="http://www.w3.org/1999/xlink" width="358pt" height="245pt" viewBox="0 0 358 244.5"><g id="graph0" class="graph" transform="scale(1 1) rotate(0) translate(4 240.5)"><title>树结构</title><polygon fill="#fff" stroke="none" points="-4 4 -4 -240.5 354 -240.5 354 4 -4 4"/><g id="clust1" class="cluster"><title>cluster_a</title><polygon fill="none" stroke="none" points="8 -8 8 -228.5 114 -228.5 114 -8 8 -8"/><text x="61" y="-15.2" font-family="Times,serif" font-size="14" text-anchor="middle">(a)</text></g><g id="clust4" class="cluster"><title>cluster_b</title><polygon fill="none" stroke="none" points="122 -8 122 -228.5 228 -228.5 228 -8 122 -8"/><text x="175" y="-15.2" font-family="Times,serif" font-size="14" text-anchor="middle">(b)</text></g><g id="clust7" class="cluster"><title>cluster_c</title><polygon fill="none" stroke="none" points="236 -8 236 -228.5 342 -228.5 342 -8 236 -8"/><text x="289" y="-15.2" font-family="Times,serif" font-size="14" text-anchor="middle">(c)</text></g><g id="node1" class="node"><title>a</title><ellipse cx="61" cy="-202.5" fill="none" stroke="#000" rx="18" ry="18"/></g><g id="node2" class="node"><title>b</title><ellipse cx="34" cy="-130.5" fill="none" stroke="#000" rx="18" ry="18"/></g><g id="edge1" class="edge"><title>a-&gt;b</title><path fill="none" stroke="#000" d="M54.74,-185.26C50.38,-173.96 44.58,-158.94 40.23,-147.65"/></g><g id="node3" class="node"><title>c</title><ellipse cx="88" cy="-130.5" fill="none" stroke="#000" rx="18" ry="18"/></g><g id="edge2" class="edge"><title>a-&gt;c</title><path fill="none" stroke="#000" d="M67.26,-185.26C71.62,-173.96 77.42,-158.94 81.77,-147.65"/></g><g id="node4" class="node"><title>d</title><ellipse cx="34" cy="-58.5" fill="none" stroke="#000" rx="18" ry="18"/></g><g id="edge3" class="edge"><title>c-&gt;d</title><path fill="none" stroke="#000" d="M77.33,-115.67C67.86,-103.4 54.11,-85.56 44.65,-73.3"/></g><g id="node5" class="node"><title>f</title><ellipse cx="88" cy="-58.5" fill="none" stroke="#000" rx="18" ry="18"/></g><g id="edge4" class="edge"><title>c-&gt;f</title><path fill="none" stroke="#000" d="M88,-112.2C88,-101.35 88,-87.42 88,-76.6"/></g><g id="node6" class="node"><title>a2</title><ellipse cx="175" cy="-202.5" fill="none" stroke="#000" rx="18" ry="18"/></g><g id="node7" class="node"><title>b2</title><ellipse cx="148" cy="-130.5" fill="none" stroke="#000" rx="18" ry="18"/></g><g id="edge5" class="edge"><title>a2-&gt;b2</title><path fill="none" stroke="#000" d="M168.74,-185.26C165.64,-177.22 161.81,-167.31 158.3,-158.19"/><polygon fill="#000" stroke="#000" points="161.64 -157.13 154.77 -149.06 155.11 -159.65 161.64 -157.13"/></g><g id="node8" class="node"><title>c2</title><ellipse cx="202" cy="-130.5" fill="none" stroke="#000" rx="18" ry="18"/></g><g id="edge6" class="edge"><title>a2-&gt;c2</title><path fill="none" stroke="#000" d="M181.26,-185.26C184.36,-177.22 188.19,-167.31 191.7,-158.19"/><polygon fill="#000" stroke="#000" points="194.89 -159.65 195.23 -149.06 188.36 -157.13 194.89 -159.65"/></g><g id="node9" class="node"><title>d2</title><ellipse cx="148" cy="-58.5" fill="none" stroke="#000" rx="18" ry="18"/></g><g id="edge7" class="edge"><title>c2-&gt;d2</title><path fill="none" stroke="#000" d="M191.33,-115.67C184.01,-106.18 174.12,-93.36 165.64,-82.36"/><polygon fill="#000" stroke="#000" points="168.45 -80.28 159.57 -74.5 162.91 -84.56 168.45 -80.28"/></g><g id="node10" class="node"><title>f2</title><ellipse cx="202" cy="-58.5" fill="none" stroke="#000" rx="18" ry="18"/></g><g id="edge8" class="edge"><title>c2-&gt;f2</title><path fill="none" stroke="#000" d="M202,-112.2C202,-104.91 202,-96.23 202,-88.04"/><polygon fill="#000" stroke="#000" points="205.5 -88.12 202 -78.12 198.5 -88.12 205.5 -88.12"/></g><g id="node11" class="node"><title>a3</title><ellipse cx="316" cy="-202.5" fill="none" stroke="#000" rx="18" ry="18"/></g><g id="node13" class="node"><title>c3</title><ellipse cx="316" cy="-130.5" fill="none" stroke="#000" rx="18" ry="18"/></g><g id="edge9" class="edge"><title>a3-&gt;c3</title><path fill="none" stroke="#000" d="M316,-184.2C316,-176.91 316,-168.23 316,-160.04"/><polygon fill="#000" stroke="#000" points="319.5 -160.12 316 -150.12 312.5 -160.12 319.5 -160.12"/></g><g id="node12" class="node"><title>b3</title><ellipse cx="262" cy="-202.5" fill="none" stroke="#000" rx="18" ry="18"/></g><g id="edge10" class="edge"><title>b3-&gt;c3</title><path fill="none" stroke="#000" d="M272.67,-187.67C279.99,-178.18 289.88,-165.36 298.36,-154.36"/><polygon fill="#000" stroke="#000" points="301.09 -156.56 304.43 -146.5 295.55 -152.28 301.09 -156.56"/></g><g id="node15" class="node"><title>f3</title><ellipse cx="289" cy="-58.5" fill="none" stroke="#000" rx="18" ry="18"/></g><g id="edge11" class="edge"><title>c3-&gt;f3</title><path fill="none" stroke="#000" d="M309.74,-113.26C306.64,-105.22 302.81,-95.31 299.3,-86.19"/><polygon fill="#000" stroke="#000" points="302.64 -85.13 295.77 -77.06 296.11 -87.65 302.64 -85.13"/></g><g id="node14" class="node"><title>d3</title><ellipse cx="262" cy="-130.5" fill="none" stroke="#000" rx="18" ry="18"/></g><g id="edge12" class="edge"><title>d3-&gt;f3</title><path fill="none" stroke="#000" d="M268.26,-113.26C271.36,-105.22 275.19,-95.31 278.7,-86.19"/><polygon fill="#000" stroke="#000" points="281.89 -87.65 282.23 -77.06 275.36 -85.13 281.89 -87.65"/></g></g></svg>