<svg xmlns="http://www.w3.org/2000/svg" xmlns:xlink="http://www.w3.org/1999/xlink" width="272" height="320" viewBox="0 0 204 240"><g id="graph0" class="graph" transform="scale(1 1) rotate(0) translate(4 236)"><title>é«˜æ–¯æ··åˆæ¨¡å‹çš„æœ‰å‘å›¾è¡¨ç¤º</title><polygon fill="#fff" stroke="none" points="-4 4 -4 -236 200 -236 200 4 -4 4"/><g id="clust1" class="cluster"><title>cluster_a</title><polygon fill="none" stroke="#000" points="64 -147 64 -224 188 -224 188 -147 64 -147"/><text x="126" y="-206.7" font-family="Times,serif" font-size="14" text-anchor="middle">N</text></g><g id="clust3" class="cluster"><title>cluster_b</title><polygon fill="none" stroke="#000" points="64 -8 64 -139 116 -139 116 -8 64 -8"/><text x="90" y="-121.7" font-family="Times,serif" font-size="14" text-anchor="middle">K</text></g><g id="node1" class="node"><title>lambda</title><text x="18" y="-167.2" font-family="Times,serif" font-size="14" text-anchor="middle">ğœ†</text></g><g id="node2" class="node"><title>Z</title><ellipse cx="90" cy="-173" fill="none" stroke="#000" rx="18" ry="18"/><text x="84.38" y="-168.95" font-family="Times,serif" font-size="14" text-anchor="start">Z</text><text x="92.62" y="-168.95" baseline-shift="super" font-family="Times,serif" font-size="14" text-anchor="start">i</text></g><g id="edge2" class="edge"><title>lambda-&gt;Z</title><path fill="none" stroke="#000" d="M35.95,-173C43.32,-173 52.16,-173 60.49,-173"/><polygon fill="#000" stroke="#000" points="60.21 -176.5 70.21 -173 60.21 -169.5 60.21 -176.5"/></g><g id="node3" class="node"><title>X</title><ellipse cx="162" cy="-173" fill="#d3d3d3" stroke="#000" rx="18" ry="18"/><text x="156" y="-168.2" font-family="Times,serif" font-size="14" text-anchor="start">ğ‘‹</text><text x="165" y="-168.2" baseline-shift="super" font-family="Times,serif" font-size="14" text-anchor="start">i</text></g><g id="edge1" class="edge"><title>Z-&gt;X</title><path fill="none" stroke="#000" d="M108.3,-173C115.59,-173 124.27,-173 132.46,-173"/><polygon fill="#000" stroke="#000" points="132.38 -176.5 142.38 -173 132.38 -169.5 132.38 -176.5"/></g><g id="node4" class="node"><title>mu</title><text x="82.88" y="-83.2" font-family="Times,serif" font-size="14" text-anchor="start">ğœ‡</text><text x="91.12" y="-83.2" baseline-shift="sub" font-family="Times,serif" font-size="14" text-anchor="start">k</text></g><g id="edge3" class="edge"><title>mu-&gt;X</title><path fill="none" stroke="#000" d="M105.5,-105.61C116.28,-118.7 131.06,-136.64 142.65,-150.72"/><polygon fill="#000" stroke="#000" points="139.72 -152.66 148.78 -158.16 145.12 -148.21 139.72 -152.66"/></g><g id="node5" class="node"><title>sigma</title><text x="82.88" y="-29.95" font-family="Times,serif" font-size="14" text-anchor="start">Î£</text><text x="91.12" y="-29.95" baseline-shift="sub" font-family="Times,serif" font-size="14" text-anchor="start">k</text></g><g id="edge4" class="edge"><title>sigma-&gt;X</title><path fill="none" stroke="#000" d="M107.89,-50.36C110.82,-53.7 113.68,-57.33 116,-61 132.78,-87.5 145.33,-121.31 152.85,-144.82"/><polygon fill="#000" stroke="#000" points="149.49 -145.79 155.78 -154.32 156.18 -143.73 149.49 -145.79"/></g></g></svg>