<svg xmlns="http://www.w3.org/2000/svg" xmlns:xlink="http://www.w3.org/1999/xlink" width="576" height="80pt" viewBox="0 0 431.5 80"><g id="graph0" class="graph" transform="scale(1 1) rotate(0) translate(4 76)"><title>编解码</title><polygon fill="#fff" stroke="none" points="-4 4 -4 -76 427.5 -76 427.5 4 -4 4"/><g id="node1" class="node"><title>input</title><text x="27" y="-30.95" font-family="Times,serif" font-size="14" text-anchor="middle">input</text></g><g id="node4" class="node"><title>encoder</title><polygon fill="#d6eaf8" stroke="#000" points="148.75 -54 90 -54 90 -18 148.75 -18 148.75 -54"/><text x="119.38" y="-30.95" font-family="Times,serif" font-size="14" text-anchor="middle">encoder</text></g><g id="edge1" class="edge"><title>input-&gt;encoder</title><path fill="none" stroke="#000" d="M53.66,-36C61.41,-36 70.1,-36 78.55,-36"/><polygon fill="#000" stroke="#000" points="78.28 -39.5 88.28 -36 78.28 -32.5 78.28 -39.5"/></g><g id="node2" class="node"><title>output</title><text x="396.5" y="-30.95" font-family="Times,serif" font-size="14" text-anchor="middle">output</text></g><g id="node3" class="node"><title>code</title><polygon fill="#fef9e7" stroke="#000" points="238.75 -72 184.75 -72 184.75 0 238.75 0 238.75 -72"/><text x="211.75" y="-30.95" font-family="Times,serif" font-size="14" text-anchor="middle">code</text></g><g id="node5" class="node"><title>decoder</title><polygon fill="#d5f5e3" stroke="#000" points="333.5 -54 274.75 -54 274.75 -18 333.5 -18 333.5 -54"/><text x="304.12" y="-30.95" font-family="Times,serif" font-size="14" text-anchor="middle">decoder</text></g><g id="edge3" class="edge"><title>code-&gt;decoder</title><path fill="none" stroke="#000" d="M238.89,-36C246.47,-36 254.93,-36 263.16,-36"/><polygon fill="#000" stroke="#000" points="263 -39.5 273 -36 263 -32.5 263 -39.5"/></g><g id="edge2" class="edge"><title>encoder-&gt;code</title><path fill="none" stroke="#000" d="M148.97,-36C156.61,-36 164.99,-36 173.05,-36"/><polygon fill="#000" stroke="#000" points="172.97 -39.5 182.97 -36 172.97 -32.5 172.97 -39.5"/></g><g id="edge4" class="edge"><title>decoder-&gt;output</title><path fill="none" stroke="#000" d="M333.72,-36C341.52,-36 350.09,-36 358.3,-36"/><polygon fill="#000" stroke="#000" points="358.03 -39.5 368.03 -36 358.03 -32.5 358.03 -39.5"/></g></g></svg>