<svg xmlns="http://www.w3.org/2000/svg" xmlns:xlink="http://www.w3.org/1999/xlink" width="220pt" height="272" viewBox="0 0 220 204"><g id="graph0" class="graph" transform="scale(1 1) rotate(0) translate(4 200)"><title>demo_9</title><polygon fill="#fff" stroke="none" points="-4 4 -4 -200 216 -200 216 4 -4 4"/><g id="clust1" class="cluster"><title>cluster_cl</title><polygon fill="none" stroke="#000" points="62 -8 62 -132 204 -132 204 -8 62 -8"/></g><g id="node1" class="node"><title>a</title><ellipse cx="134" cy="-106" fill="none" stroke="#000" rx="27" ry="18"/><text x="134" y="-100.95" font-family="Times,serif" font-size="14" text-anchor="middle">a</text></g><g id="node2" class="node"><title>b</title><ellipse cx="97" cy="-34" fill="none" stroke="#000" rx="27" ry="18"/><text x="97" y="-28.95" font-family="Times,serif" font-size="14" text-anchor="middle">b</text></g><g id="edge1" class="edge"><title>a-&gt;b</title><path fill="none" stroke="#000" d="M125.42,-88.76C121.08,-80.55 115.7,-70.37 110.79,-61.09"/><polygon fill="#000" stroke="#000" points="114.01 -59.69 106.24 -52.49 107.82 -62.96 114.01 -59.69"/></g><g id="node3" class="node"><title>c</title><ellipse cx="169" cy="-34" fill="none" stroke="#000" rx="27" ry="18"/><text x="169" y="-28.95" font-family="Times,serif" font-size="14" text-anchor="middle">c</text></g><g id="edge2" class="edge"><title>a-&gt;c</title><path fill="none" stroke="#000" d="M142.29,-88.41C146.3,-80.39 151.22,-70.57 155.73,-61.54"/><polygon fill="#000" stroke="#000" points="158.75 -63.33 160.09 -52.82 152.49 -60.2 158.75 -63.33"/></g><g id="node5" class="node"><title>d</title><ellipse cx="27" cy="-106" fill="none" stroke="#000" rx="27" ry="18"/><text x="27" y="-100.95" font-family="Times,serif" font-size="14" text-anchor="middle">d</text></g><g id="edge4" class="edge"><title>b-&gt;d</title><path fill="none" stroke="#000" d="M82.51,-49.49C72.95,-59.05 60.21,-71.79 49.36,-82.64"/><polygon fill="#000" stroke="#000" points="47.17 -79.88 42.57 -89.43 52.12 -84.83 47.17 -79.88"/></g><g id="node4" class="node"><title>r</title><ellipse cx="134" cy="-178" fill="none" stroke="#000" rx="27" ry="18"/><text x="134" y="-172.95" font-family="Times,serif" font-size="14" text-anchor="middle">r</text></g><g id="edge3" class="edge"><title>r-&gt;a</title><path fill="none" stroke="#000" d="M134,-159.7C134,-152.41 134,-143.73 134,-135.54"/><polygon fill="#000" stroke="#000" points="137.5 -135.62 134 -125.62 130.5 -135.62 137.5 -135.62"/></g></g></svg>