<svg xmlns="http://www.w3.org/2000/svg" xmlns:xlink="http://www.w3.org/1999/xlink" width="142pt" height="280" viewBox="0 0 142.33 210"><g id="graph0" class="graph" transform="scale(1 1) rotate(0) translate(4 206)"><title>一个树形概率图模型</title><polygon fill="#fff" stroke="none" points="-4 4 -4 -206 138.33 -206 138.33 4 -4 4"/><g id="node1" class="node"><title>1</title><ellipse cx="81.67" cy="-180.33" fill="none" stroke="#000" rx="21.67" ry="21.67"/><text x="73.79" y="-176.28" font-family="Times,serif" font-size="14" text-anchor="start">X</text><text x="83.54" y="-176.28" baseline-shift="sub" font-family="Times,serif" font-size="14" text-anchor="start">1</text></g><g id="node2" class="node"><title>2</title><ellipse cx="51.67" cy="-101" fill="none" stroke="#000" rx="21.67" ry="21.67"/><text x="43.79" y="-96.95" font-family="Times,serif" font-size="14" text-anchor="start">X</text><text x="53.54" y="-96.95" baseline-shift="sub" font-family="Times,serif" font-size="14" text-anchor="start">2</text></g><g id="edge1" class="edge"><title>1-&gt;2</title><path fill="none" stroke="#000" d="M74.1,-159.82C69.58,-148.18 63.87,-133.46 59.34,-121.78"/></g><g id="node3" class="node"><title>3</title><ellipse cx="112.67" cy="-101" fill="none" stroke="#000" rx="21.67" ry="21.67"/><text x="104.79" y="-96.95" font-family="Times,serif" font-size="14" text-anchor="start">X</text><text x="114.54" y="-96.95" baseline-shift="sub" font-family="Times,serif" font-size="14" text-anchor="start">3</text></g><g id="edge2" class="edge"><title>1-&gt;3</title><path fill="none" stroke="#000" d="M89.49,-159.82C94.19,-148.1 100.15,-133.23 104.85,-121.51"/></g><g id="node4" class="node"><title>4</title><ellipse cx="21.67" cy="-21.67" fill="none" stroke="#000" rx="21.67" ry="21.67"/><text x="13.79" y="-17.62" font-family="Times,serif" font-size="14" text-anchor="start">X</text><text x="23.54" y="-17.62" baseline-shift="sub" font-family="Times,serif" font-size="14" text-anchor="start">4</text></g><g id="edge3" class="edge"><title>2-&gt;4</title><path fill="none" stroke="#000" d="M44.1,-80.49C39.58,-68.85 33.87,-54.12 29.34,-42.44"/></g><g id="node5" class="node"><title>5</title><ellipse cx="82.67" cy="-21.67" fill="none" stroke="#000" rx="21.67" ry="21.67"/><text x="74.79" y="-17.62" font-family="Times,serif" font-size="14" text-anchor="start">X</text><text x="84.54" y="-17.62" baseline-shift="sub" font-family="Times,serif" font-size="14" text-anchor="start">5</text></g><g id="edge4" class="edge"><title>2-&gt;5</title><path fill="none" stroke="#000" d="M59.49,-80.49C64.19,-68.76 70.15,-53.9 74.85,-42.17"/></g></g></svg>