<svg xmlns="http://www.w3.org/2000/svg" xmlns:xlink="http://www.w3.org/1999/xlink" width="154pt" height="50pt" viewBox="0 0 153.5 49.77"><g id="graph0" class="graph" transform="scale(1 1) rotate(0) translate(4 45.77)"><title>VAE有向图</title><polygon fill="#fff" stroke="none" points="-4 4 -4 -45.77 149.5 -45.77 149.5 4 -4 4"/><g id="node1" class="node"><title>X</title><ellipse cx="18" cy="-23.77" fill="#d3d3d3" stroke="#000" rx="18" ry="18"/><text x="18" y="-18.72" font-family="Times,serif" font-size="14" text-anchor="middle">X</text></g><g id="node2" class="node"><title>Z</title><ellipse cx="127.5" cy="-23.77" fill="none" stroke="#000" rx="18" ry="18"/><text x="127.5" y="-18.72" font-family="Times,serif" font-size="14" text-anchor="middle">Z</text></g><g id="edge1" class="edge"><title>X-&gt;Z</title><path fill="none" stroke="#000" d="M36.27,-23.77C52.88,-23.77 78.3,-23.77 97.93,-23.77"/><polygon fill="#000" stroke="#000" points="97.76 -27.27 107.76 -23.77 97.76 -20.27 97.76 -27.27"/><text x="72.75" y="-26.97" font-family="Times,serif" font-size="14" text-anchor="middle">P(Z|X)</text></g><g id="edge2" class="edge"><title>Z-&gt;X</title><path fill="none" stroke="#000" d="M112.63,-13.35C106.49,-9.37 98.98,-5.3 91.5,-3.27 75.41,1.09 70.09,1.09 54,-3.27 50.15,-4.32 46.28,-5.91 42.6,-7.75"/><polygon fill="#000" stroke="#000" points="41.1 -4.57 34.18 -12.6 44.6 -10.64 41.1 -4.57"/><text x="72.75" y="-5.97" font-family="Times,serif" font-size="14" text-anchor="middle">P(X|Z)</text></g></g></svg>