<svg xmlns="http://www.w3.org/2000/svg" xmlns:xlink="http://www.w3.org/1999/xlink" width="385pt" height="278pt" viewBox="0 0 384.74 278.06"><g id="graph0" class="graph" transform="scale(1 1) rotate(0) translate(4 274.06)"><title>demo_5</title><polygon fill="#fff" stroke="none" points="-4 4 -4 -274.06 380.74 -274.06 380.74 4 -4 4"/><g id="node1" class="node"><title>a</title><ellipse cx="117.29" cy="-115.44" fill="none" stroke="#000" rx="27" ry="18"/><text x="117.29" y="-110.39" font-family="Times,serif" font-size="14" text-anchor="middle">a</text></g><g id="node2" class="node"><title>b</title><ellipse cx="235.73" cy="-134.55" fill="none" stroke="#000" rx="27" ry="18"/><text x="235.73" y="-129.5" font-family="Times,serif" font-size="14" text-anchor="middle">b</text></g><g id="edge1" class="edge"><title>a-&gt;b</title><path fill="none" stroke="#000" d="M143.87,-119.73C159.79,-122.3 180.3,-125.61 197.89,-128.45"/><polygon fill="#000" stroke="#000" points="197.31 -131.9 207.74 -130.04 198.43 -124.99 197.31 -131.9"/></g><g id="node3" class="node"><title>c</title><ellipse cx="55.53" cy="-18" fill="none" stroke="#000" rx="27" ry="18"/><text x="55.53" y="-12.95" font-family="Times,serif" font-size="14" text-anchor="middle">c</text></g><g id="edge2" class="edge"><title>a-&gt;c</title><path fill="none" stroke="#000" d="M106.53,-98.47C97.05,-83.52 83.1,-61.5 72.18,-44.28"/><polygon fill="#000" stroke="#000" points="75.28 -42.63 66.97 -36.06 69.37 -46.38 75.28 -42.63"/></g><g id="node4" class="node"><title>d</title><ellipse cx="27" cy="-186.84" fill="none" stroke="#000" rx="27" ry="18"/><text x="27" y="-181.79" font-family="Times,serif" font-size="14" text-anchor="middle">d</text></g><g id="edge3" class="edge"><title>a-&gt;d</title><path fill="none" stroke="#000" d="M99.88,-129.21C86.73,-139.61 68.44,-154.07 53.48,-165.9"/><polygon fill="#000" stroke="#000" points="51.52 -162.98 45.85 -171.93 55.87 -168.48 51.52 -162.98"/></g><g id="node5" class="node"><title>e</title><ellipse cx="349.74" cy="-151.67" fill="none" stroke="#000" rx="27" ry="18"/><text x="349.74" y="-146.62" font-family="Times,serif" font-size="14" text-anchor="middle">e</text></g><g id="edge4" class="edge"><title>b-&gt;e</title><path fill="none" stroke="#000" d="M262.46,-138.57C277.18,-140.78 295.7,-143.55 311.89,-145.98"/><polygon fill="#000" stroke="#000" points="311.27 -149.43 321.68 -147.45 312.31 -142.51 311.27 -149.43"/></g><g id="node6" class="node"><title>f</title><ellipse cx="249.3" cy="-252.06" fill="none" stroke="#000" rx="27" ry="18"/><text x="249.3" y="-247.01" font-family="Times,serif" font-size="14" text-anchor="middle">f</text></g><g id="edge5" class="edge"><title>b-&gt;f</title><path fill="none" stroke="#000" d="M237.85,-152.91C240,-171.54 243.37,-200.66 245.89,-222.53"/><polygon fill="#000" stroke="#000" points="242.4 -222.79 247.02 -232.32 249.35 -221.99 242.4 -222.79"/></g><g id="node7" class="node"><title>g</title><ellipse cx="284.42" cy="-26.71" fill="none" stroke="#000" rx="27" ry="18"/><text x="284.42" y="-21.66" font-family="Times,serif" font-size="14" text-anchor="middle">g</text></g><g id="edge6" class="edge"><title>b-&gt;g</title><path fill="none" stroke="#000" d="M243.55,-117.23C251.17,-100.35 262.89,-74.41 271.82,-54.62"/><polygon fill="#000" stroke="#000" points="274.91 -56.29 275.84 -45.73 268.53 -53.41 274.91 -56.29"/></g></g></svg>